<?xml version="1.0" encoding="UTF-8" standalone="no"?>
<!-- Created with Inkscape (http://www.inkscape.org/) -->

<svg
   xmlns:dc="http://purl.org/dc/elements/1.1/"
   xmlns:cc="http://creativecommons.org/ns#"
   xmlns:rdf="http://www.w3.org/1999/02/22-rdf-syntax-ns#"
   xmlns:svg="http://www.w3.org/2000/svg"
   xmlns="http://www.w3.org/2000/svg"
   xmlns:sodipodi="http://sodipodi.sourceforge.net/DTD/sodipodi-0.dtd"
   xmlns:inkscape="http://www.inkscape.org/namespaces/inkscape"
   width="256"
   height="256"
   viewBox="0 0 256 256"
   id="svg2"
   version="1.1"
   inkscape:version="0.92.3 (2405546, 2018-03-11)"
   sodipodi:docname="lliurex-up-indicator.svg">
  <defs
     id="defs4">
    <linearGradient
       id="rect3438-6-0-6-7-2_60_-61"
       gradientUnits="userSpaceOnUse"
       x1="-461.39209"
       y1="370.95309"
       x2="-461.39209"
       y2="666.9834"
       gradientTransform="matrix(0.9954,0,0,-0.9999,609.2166,666.5718)">
      <stop
         offset="0"
         style="stop-color:#000000"
         id="stop29032" />
      <stop
         offset="1"
         style="stop-color:#000000;stop-opacity:0.5882"
         id="stop29034" />
    </linearGradient>
    <linearGradient
       id="rect3438-6-0-1-1_60_-60"
       gradientUnits="userSpaceOnUse"
       x1="-456.38821"
       y1="371.95309"
       x2="-456.38821"
       y2="668.63483"
       gradientTransform="matrix(0.9867,0,0,-0.9918,600.2651,662.6824)">
      <stop
         offset="0"
         style="stop-color:#000000"
         id="stop29038" />
      <stop
         offset="1"
         style="stop-color:#000000;stop-opacity:0.5882"
         id="stop29040" />
    </linearGradient>
    <linearGradient
       y2="99.078102"
       x2="198.43359"
       y1="231.5"
       x1="198.43359"
       gradientUnits="userSpaceOnUse"
       id="linearGradient1594">
      <stop
         id="stop29084-3"
         style="stop-color:#000000"
         offset="0" />
      <stop
         id="stop29086-6"
         style="stop-color:#000000;stop-opacity:0.5882"
         offset="1" />
    </linearGradient>
    <linearGradient
       y2="51.732399"
       x2="151.83591"
       y1="213.25"
       x1="151.83591"
       gradientUnits="userSpaceOnUse"
       id="linearGradient1598">
      <stop
         id="stop29090-7"
         style="stop-color:#000000"
         offset="0" />
      <stop
         id="stop29092-5"
         style="stop-color:#000000;stop-opacity:0.5882"
         offset="1" />
    </linearGradient>
    <linearGradient
       y2="99.434601"
       x2="103.207"
       y1="232.5"
       x1="103.207"
       gradientUnits="userSpaceOnUse"
       id="linearGradient1602">
      <stop
         id="stop29096-3"
         style="stop-color:#000000"
         offset="0" />
      <stop
         id="stop29098-5"
         style="stop-color:#000000;stop-opacity:0.5882"
         offset="1" />
    </linearGradient>
    <linearGradient
       y2="96.773903"
       x2="198.43359"
       y1="229.5"
       x1="198.43359"
       gradientUnits="userSpaceOnUse"
       id="linearGradient1606">
      <stop
         id="stop29065-6"
         style="stop-color:#000000"
         offset="0" />
      <stop
         id="stop29067-2"
         style="stop-color:#000000;stop-opacity:0.5882"
         offset="1" />
    </linearGradient>
    <linearGradient
       y2="49.428699"
       x2="151.83591"
       y1="210.5"
       x1="151.83591"
       gradientUnits="userSpaceOnUse"
       id="linearGradient1610">
      <stop
         id="stop29071-9"
         style="stop-color:#000000"
         offset="0" />
      <stop
         id="stop29073-1"
         style="stop-color:#000000;stop-opacity:0.5882"
         offset="1" />
    </linearGradient>
    <linearGradient
       y2="97.130402"
       x2="103.207"
       y1="230.5"
       x1="103.207"
       gradientUnits="userSpaceOnUse"
       id="linearGradient1614">
      <stop
         id="stop29077-2"
         style="stop-color:#000000"
         offset="0" />
      <stop
         id="stop29079-7"
         style="stop-color:#000000;stop-opacity:0.5882"
         offset="1" />
    </linearGradient>
  </defs>
  <sodipodi:namedview
     id="base"
     pagecolor="#ffffff"
     bordercolor="#666666"
     borderopacity="1.0"
     inkscape:pageopacity="0.0"
     inkscape:pageshadow="2"
     inkscape:zoom="0.9899495"
     inkscape:cx="-276.76911"
     inkscape:cy="170.03753"
     inkscape:document-units="px"
     inkscape:current-layer="XMLID_112_-0"
     showgrid="false"
     units="px"
     showguides="true"
     inkscape:guide-bbox="true"
     inkscape:snap-intersection-paths="false"
     inkscape:snap-midpoints="true"
     inkscape:window-width="1920"
     inkscape:window-height="839"
     inkscape:window-x="0"
     inkscape:window-y="30"
     inkscape:window-maximized="1">
    <sodipodi:guide
       position="128.92857,237.85714"
       orientation="0,1"
       id="guide4147"
       inkscape:locked="false" />
    <sodipodi:guide
       position="18.214286,162.14286"
       orientation="1,0"
       id="guide4149"
       inkscape:locked="false" />
    <sodipodi:guide
       position="237.85714,66.785714"
       orientation="1,0"
       id="guide4151"
       inkscape:locked="false" />
    <sodipodi:guide
       position="198.21429,17.5"
       orientation="0,1"
       id="guide4153"
       inkscape:locked="false" />
  </sodipodi:namedview>
  <metadata
     id="metadata7">
    <rdf:RDF>
      <cc:Work
         rdf:about="">
        <dc:format>image/svg+xml</dc:format>
        <dc:type
           rdf:resource="http://purl.org/dc/dcmitype/StillImage" />
        <dc:title />
      </cc:Work>
    </rdf:RDF>
  </metadata>
  <g
     inkscape:label="Capa 1"
     inkscape:groupmode="layer"
     id="layer1"
     transform="translate(0,-796.36216)">
    <g
       id="g29119"
       transform="matrix(0.74931131,0,0,0.74931131,16.298157,815.16006)">
      <path
         d="m 152.25596,4.53703 c -26.32425,0 -48.72728,24.64089 -48.72728,55.0387 0,29.52947 22.06179,61.20236 41.86592,72.44196 0,37.48921 0,79.5105 0,116.07197 0,3.04678 4.57018,3.04678 4.57018,0 0,-36.56147 0,-78.1288 0,-115.38949 24.37431,-3.59826 48.98321,-44.09921 48.98321,-73.12444 0,-30.39781 -20.3632,-55.0387 -46.69203,-55.0387 z m -11.08878,26.31358 c -19.89705,17.17322 -24.79934,45.05743 -12.66398,68.22673 1.58585,3.02851 -2.64766,5.44309 -4.54733,2.6568 -19.35929,-28.38693 -17.17322,-69.88571 15.22023,-87.6043 0.15082,-0.10969 0.32144,-0.20871 0.51491,-0.29402 0.19195,-0.10206 0.38237,-0.17823 0.56822,-0.23155 3.30729,-1.25528 8.59804,-1.51426 10.30577,2.23482 2.48618,5.46593 -6.08901,12.15363 -9.39782,15.01152 z"
         id="XMLID_855_-8"
         inkscape:connector-curvature="0"
         style="fill:#232627;fill-opacity:1;stroke-width:1.52339411" />
      <path
         d="m 238.03675,78.35461 c -11.91902,-3.49924 -24.3164,-1.41828 -34.99083,4.81392 -4.2975,17.34842 -15.32838,36.09683 -28.6002,47.61064 -2.14342,26.6274 9.09162,56.52249 23.52882,69.96035 0.0807,0.0244 -0.78607,0.0411 -0.78607,0.0655 0,24.50379 0,50.33142 0,74.70572 0,4.57018 6.09358,4.57018 6.09358,0 0,-24.3743 0,-49.60475 0,-73.81148 24.37431,1.55233 56.393,-30.02763 64.34055,-57.10596 8.56604,-29.16538 -4.32492,-58.82281 -29.58585,-66.23869 z"
         id="XMLID_1643_-1"
         inkscape:connector-curvature="0"
         style="fill:#232627;fill-opacity:1;stroke-width:1.52339411" />
      <path
         d="M 124.92627,127.47493 C 112.8549,116.41966 102.2475,100.97092 97.526506,84.6508 85.190061,77.02316 70.557861,74.84776 57.185508,80.03796 c -24.543402,9.52731 -36.136431,40.2237 -25.137526,68.55883 10.068111,25.9373 38.700303,46.33707 61.551214,51.26373 0,25.17257 0,51.27592 0,77.17362 0,4.57019 6.093577,4.57019 6.093577,0 0,-24.3743 0,-51.40846 0,-76.28701 0,0.0275 0.723607,0.0641 0.962787,0.0869 21.00151,-8.15168 29.22327,-45.10618 24.27071,-73.35904 z"
         id="XMLID_777_-9"
         inkscape:connector-curvature="0"
         style="fill:#232627;stroke-width:1.52339411;fill-opacity:1" />
      <g
         transform="matrix(1.5233941,0,0,1.5233941,-80.067723,-67.25292)"
         id="XMLID_272_-2"
         style="opacity:0.5">
        <path
           d="m 192.729,101.989 c -2.127,11.045 -7.781,21.383 -15.936,29.132 -1.06,1.007 -2.186,2.006 -2.821,3.323 -0.601,1.243 -0.708,2.661 -0.76,4.042 -0.285,7.536 1.061,13.371 3.419,20.534 0.456,1.386 3.943,7.63 5.398,7.524 -3.808,-5.803 -5.565,-12.921 -4.897,-19.829 0.669,-6.908 3.759,-13.558 8.608,-18.522 2.649,-2.712 5.8,-4.934 8.196,-7.872 2.908,-3.565 4.579,-8.123 4.662,-12.723 0.031,-1.728 -0.189,-3.555 -1.222,-4.942 -1.033,-1.386 -3.084,-2.128 -4.563,-1.234"
           id="XMLID_3816_-0"
           inkscape:connector-curvature="0"
           style="fill:#ffffff" />
      </g>
      <path
         d="m 63.046004,89.18137 c -2.771054,-3.04526 -7.728178,-1.17758 -10.493138,1.03134 -0.16148,0.10817 -0.319912,0.23917 -0.470728,0.39456 -0.158434,0.14167 -0.290969,0.28792 -0.400653,0.43874 -25.407166,26.79345 -14.770829,66.96382 12.354726,88.0537 2.661369,2.06876 5.950377,-1.52492 3.51447,-3.92274 -18.649391,-18.33557 -22.526428,-46.38126 -8.85092,-68.82543 2.278998,-3.73536 8.392379,-12.72795 4.346243,-17.17017 z"
         id="XMLID_440_-2"
         inkscape:connector-curvature="0"
         style="opacity:0.62999998;fill:#ffffff;stroke-width:1.52339411" />
      <g
         display="none"
         id="Capa_2-68"
         style="display:none" />
      <g
         display="none"
         id="Capa_3-77"
         style="display:none">
        <g
           display="inline"
           id="XMLID_528_-4"
           style="display:inline">
          <g
             id="XMLID_2864_-7">
            <path
               d="m -295.115,-19.288 c -15.214,6.737 -24.612,20.724 -30.829,35.639 -7.169,17.198 -11.31,35.881 -14.992,54.089 -7.519,37.173 -10.816,76.312 -2.523,113.65 7.941,35.758 27.651,67.435 57.682,88.698 29.222,20.689 65.052,30.788 100.487,33.167 37.115,2.492 76.078,-2.932 109.798,-19.132 33.565,-16.126 59.096,-43.918 70.596,-79.501 C 6.393,172.391 4.377,133.61 -8.874,99.523 -22.748,63.838 -47.557,33.298 -77.052,9.249 c -30.861,-25.164 -68.276,-46.583 -108.311,-51.688 -35.328,-4.505 -73.881,6.342 -96.752,34.95 -4.933,6.171 -8.813,12.974 -11.736,20.307 -0.715,1.793 2.185,2.572 2.893,0.797 13.176,-33.054 48.615,-52.32 83.037,-54.003 40.84,-1.997 80.003,16.718 112.695,39.626 59.351,41.588 104.572,109.559 92.812,184.644 -5.651,36.081 -24.609,68.498 -55.021,89.135 -30.553,20.733 -68.273,29.354 -104.783,30.385 -34.452,0.973 -69.825,-5.114 -100.831,-20.56 -31.954,-15.919 -57.236,-42.09 -70.265,-75.515 -13.134,-33.693 -13.966,-70.921 -9.603,-106.422 2.289,-18.628 6.083,-37.059 10.783,-55.221 4.199,-16.219 9.007,-33.091 19.169,-46.709 5.087,-6.816 11.572,-12.224 19.363,-15.673 1.763,-0.78 0.239,-3.365 -1.513,-2.59 l 0,0 z"
               id="XMLID_2805_-1"
               inkscape:connector-curvature="0"
               style="fill:#d60523" />
          </g>
        </g>
      </g>
      <g
         transform="matrix(1.5233941,0,0,1.5233941,-275.17072,-301.74241)"
         enable-background="new    "
         id="XMLID_112_-0"
         style="display:inline;opacity:1;fill:#3daee9;fill-opacity:1">
        <linearGradient
           y2="96.773903"
           x2="198.43359"
           y1="229.5"
           x1="198.43359"
           gradientUnits="userSpaceOnUse"
           id="linearGradient1490">
          <stop
             id="stop1486"
             style="stop-color:#000000"
             offset="0" />
          <stop
             id="stop1488"
             style="stop-color:#000000;stop-opacity:0.5882"
             offset="1" />
        </linearGradient>
        <linearGradient
           y2="49.428699"
           x2="151.83591"
           y1="210.5"
           x1="151.83591"
           gradientUnits="userSpaceOnUse"
           id="linearGradient1497">
          <stop
             id="stop1493"
             style="stop-color:#000000"
             offset="0" />
          <stop
             id="stop1495"
             style="stop-color:#000000;stop-opacity:0.5882"
             offset="1" />
        </linearGradient>
        <linearGradient
           y2="97.130402"
           x2="103.207"
           y1="230.5"
           x1="103.207"
           gradientUnits="userSpaceOnUse"
           id="linearGradient1504">
          <stop
             id="stop1500"
             style="stop-color:#000000"
             offset="0" />
          <stop
             id="stop1502"
             style="stop-color:#000000;stop-opacity:0.5882"
             offset="1" />
        </linearGradient>
        <circle
           style="opacity:1;fill:#3daee9;fill-opacity:1;stroke:none;stroke-width:0;stroke-miterlimit:4;stroke-dasharray:none;stroke-opacity:1"
           id="path1430"
           cx="346.46057"
           cy="353.50443"
           r="28.471399" />
      </g>
      <path
         d="m 150.56347,15.83756 c -1.70772,-3.74755 -6.99847,-3.49009 -10.30576,-2.23482 -0.18585,0.0548 -0.37628,0.12949 -0.56822,0.23156 -0.19348,0.0868 -0.3641,0.18585 -0.51491,0.29402 -32.39498,17.71859 -34.57953,59.21737 -15.22023,87.60429 1.89967,2.78629 6.13318,0.37171 4.54733,-2.65679 -12.13536,-23.16778 -7.23155,-51.05199 12.66397,-68.22673 3.31034,-2.85637 11.88553,-9.54407 9.39782,-15.01153 z"
         id="XMLID_728_-7"
         inkscape:connector-curvature="0"
         style="opacity:0.5;fill:#ffffff;stroke-width:1.52339411" />
    </g>
  </g>
</svg>
