<?xml version="1.0" encoding="UTF-8" standalone="no"?>
<!-- Created with Inkscape (http://www.inkscape.org/) -->

<svg
   width="256"
   height="256"
   viewBox="0 0 256 256"
   id="svg2"
   version="1.1"
   inkscape:version="1.2.2 (1:1.2.2+202305151915+b0a8486541)"
   sodipodi:docname="lliurexupnotifier-running.svg"
   xmlns:inkscape="http://www.inkscape.org/namespaces/inkscape"
   xmlns:sodipodi="http://sodipodi.sourceforge.net/DTD/sodipodi-0.dtd"
   xmlns="http://www.w3.org/2000/svg"
   xmlns:svg="http://www.w3.org/2000/svg"
   xmlns:rdf="http://www.w3.org/1999/02/22-rdf-syntax-ns#"
   xmlns:cc="http://creativecommons.org/ns#"
   xmlns:dc="http://purl.org/dc/elements/1.1/">
  <defs
     id="defs4">
    <linearGradient
       id="rect3438-6-0-6-7-2_60_-61"
       gradientUnits="userSpaceOnUse"
       x1="-461.39209"
       y1="370.95309"
       x2="-461.39209"
       y2="666.9834"
       gradientTransform="matrix(0.9954,0,0,-0.9999,609.2166,666.5718)">
      <stop
         offset="0"
         style="stop-color:#000000"
         id="stop29032" />
      <stop
         offset="1"
         style="stop-color:#000000;stop-opacity:0.5882"
         id="stop29034" />
    </linearGradient>
    <linearGradient
       id="rect3438-6-0-1-1_60_-60"
       gradientUnits="userSpaceOnUse"
       x1="-456.38821"
       y1="371.95309"
       x2="-456.38821"
       y2="668.63483"
       gradientTransform="matrix(0.9867,0,0,-0.9918,600.2651,662.6824)">
      <stop
         offset="0"
         style="stop-color:#000000"
         id="stop29038" />
      <stop
         offset="1"
         style="stop-color:#000000;stop-opacity:0.5882"
         id="stop29040" />
    </linearGradient>
    <linearGradient
       y2="99.078102"
       x2="198.43359"
       y1="231.5"
       x1="198.43359"
       gradientUnits="userSpaceOnUse"
       id="linearGradient1594">
      <stop
         id="stop29084-3"
         style="stop-color:#000000"
         offset="0" />
      <stop
         id="stop29086-6"
         style="stop-color:#000000;stop-opacity:0.5882"
         offset="1" />
    </linearGradient>
    <linearGradient
       y2="51.732399"
       x2="151.83591"
       y1="213.25"
       x1="151.83591"
       gradientUnits="userSpaceOnUse"
       id="linearGradient1598">
      <stop
         id="stop29090-7"
         style="stop-color:#000000"
         offset="0" />
      <stop
         id="stop29092-5"
         style="stop-color:#000000;stop-opacity:0.5882"
         offset="1" />
    </linearGradient>
    <linearGradient
       y2="99.434601"
       x2="103.207"
       y1="232.5"
       x1="103.207"
       gradientUnits="userSpaceOnUse"
       id="linearGradient1602">
      <stop
         id="stop29096-3"
         style="stop-color:#000000"
         offset="0" />
      <stop
         id="stop29098-5"
         style="stop-color:#000000;stop-opacity:0.5882"
         offset="1" />
    </linearGradient>
    <linearGradient
       y2="96.773903"
       x2="198.43359"
       y1="229.5"
       x1="198.43359"
       gradientUnits="userSpaceOnUse"
       id="linearGradient1606">
      <stop
         id="stop29065-6"
         style="stop-color:#000000"
         offset="0" />
      <stop
         id="stop29067-2"
         style="stop-color:#000000;stop-opacity:0.5882"
         offset="1" />
    </linearGradient>
    <linearGradient
       y2="49.428699"
       x2="151.83591"
       y1="210.5"
       x1="151.83591"
       gradientUnits="userSpaceOnUse"
       id="linearGradient1610">
      <stop
         id="stop29071-9"
         style="stop-color:#000000"
         offset="0" />
      <stop
         id="stop29073-1"
         style="stop-color:#000000;stop-opacity:0.5882"
         offset="1" />
    </linearGradient>
    <linearGradient
       y2="97.130402"
       x2="103.207"
       y1="230.5"
       x1="103.207"
       gradientUnits="userSpaceOnUse"
       id="linearGradient1614">
      <stop
         id="stop29077-2"
         style="stop-color:#000000"
         offset="0" />
      <stop
         id="stop29079-7"
         style="stop-color:#000000;stop-opacity:0.5882"
         offset="1" />
    </linearGradient>
  </defs>
  <sodipodi:namedview
     id="base"
     pagecolor="#ffffff"
     bordercolor="#666666"
     borderopacity="1.0"
     inkscape:pageopacity="0.0"
     inkscape:pageshadow="2"
     inkscape:zoom="1.979899"
     inkscape:cx="16.414979"
     inkscape:cy="114.65231"
     inkscape:document-units="px"
     inkscape:current-layer="XMLID_112_-0"
     showgrid="false"
     units="px"
     showguides="true"
     inkscape:guide-bbox="true"
     inkscape:snap-intersection-paths="false"
     inkscape:snap-midpoints="true"
     inkscape:window-width="1920"
     inkscape:window-height="879"
     inkscape:window-x="0"
     inkscape:window-y="0"
     inkscape:window-maximized="1"
     inkscape:showpageshadow="2"
     inkscape:pagecheckerboard="0"
     inkscape:deskcolor="#d1d1d1">
    <sodipodi:guide
       position="128.92857,237.85714"
       orientation="0,1"
       id="guide4147"
       inkscape:locked="false" />
    <sodipodi:guide
       position="18.214286,162.14286"
       orientation="1,0"
       id="guide4149"
       inkscape:locked="false" />
    <sodipodi:guide
       position="237.85714,66.785714"
       orientation="1,0"
       id="guide4151"
       inkscape:locked="false" />
    <sodipodi:guide
       position="198.21429,17.5"
       orientation="0,1"
       id="guide4153"
       inkscape:locked="false" />
  </sodipodi:namedview>
  <metadata
     id="metadata7">
    <rdf:RDF>
      <cc:Work
         rdf:about="">
        <dc:format>image/svg+xml</dc:format>
        <dc:type
           rdf:resource="http://purl.org/dc/dcmitype/StillImage" />
        <dc:title />
      </cc:Work>
    </rdf:RDF>
  </metadata>
  <g
     inkscape:label="Capa 1"
     inkscape:groupmode="layer"
     id="layer1"
     transform="translate(0,-796.36216)">
    <g
       id="g29119"
       transform="matrix(0.74931131,0,0,0.74931131,16.298157,815.16006)">
      <path
         d="m 152.25596,4.53703 c -26.32425,0 -48.72728,24.64089 -48.72728,55.0387 0,29.52947 22.06179,61.20236 41.86592,72.44196 0,37.48921 0,79.5105 0,116.07197 0,3.04678 4.57018,3.04678 4.57018,0 0,-36.56147 0,-78.1288 0,-115.38949 24.37431,-3.59826 48.98321,-44.09921 48.98321,-73.12444 0,-30.39781 -20.3632,-55.0387 -46.69203,-55.0387 z m -11.08878,26.31358 c -19.89705,17.17322 -24.79934,45.05743 -12.66398,68.22673 1.58585,3.02851 -2.64766,5.44309 -4.54733,2.6568 -19.35929,-28.38693 -17.17322,-69.88571 15.22023,-87.6043 0.15082,-0.10969 0.32144,-0.20871 0.51491,-0.29402 0.19195,-0.10206 0.38237,-0.17823 0.56822,-0.23155 3.30729,-1.25528 8.59804,-1.51426 10.30577,2.23482 2.48618,5.46593 -6.08901,12.15363 -9.39782,15.01152 z"
         id="XMLID_855_-8"
         inkscape:connector-curvature="0"
         style="fill:#008000;fill-opacity:1;stroke-width:1.52339411" />
      <path
         d="m 238.03675,78.35461 c -11.91902,-3.49924 -24.3164,-1.41828 -34.99083,4.81392 -4.2975,17.34842 -15.32838,36.09683 -28.6002,47.61064 -2.14342,26.6274 9.09162,56.52249 23.52882,69.96035 0.0807,0.0244 -0.78607,0.0411 -0.78607,0.0655 0,24.50379 0,50.33142 0,74.70572 0,4.57018 6.09358,4.57018 6.09358,0 0,-24.3743 0,-49.60475 0,-73.81148 24.37431,1.55233 56.393,-30.02763 64.34055,-57.10596 8.56604,-29.16538 -4.32492,-58.82281 -29.58585,-66.23869 z"
         id="XMLID_1643_-1"
         inkscape:connector-curvature="0"
         style="fill:#008000;fill-opacity:1;stroke-width:1.52339411" />
      <path
         d="M 124.92627,127.47493 C 112.8549,116.41966 102.2475,100.97092 97.526506,84.6508 85.190061,77.02316 70.557861,74.84776 57.185508,80.03796 c -24.543402,9.52731 -36.136431,40.2237 -25.137526,68.55883 10.068111,25.9373 38.700303,46.33707 61.551214,51.26373 0,25.17257 0,51.27592 0,77.17362 0,4.57019 6.093577,4.57019 6.093577,0 0,-24.3743 0,-51.40846 0,-76.28701 0,0.0275 0.723607,0.0641 0.962787,0.0869 21.00151,-8.15168 29.22327,-45.10618 24.27071,-73.35904 z"
         id="XMLID_777_-9"
         inkscape:connector-curvature="0"
         style="fill:#008000;stroke-width:1.52339411;fill-opacity:1" />
      <g
         transform="matrix(1.5233941,0,0,1.5233941,-80.067723,-67.25292)"
         id="XMLID_272_-2"
         style="opacity:0.5">
        <path
           d="m 192.729,101.989 c -2.127,11.045 -7.781,21.383 -15.936,29.132 -1.06,1.007 -2.186,2.006 -2.821,3.323 -0.601,1.243 -0.708,2.661 -0.76,4.042 -0.285,7.536 1.061,13.371 3.419,20.534 0.456,1.386 3.943,7.63 5.398,7.524 -3.808,-5.803 -5.565,-12.921 -4.897,-19.829 0.669,-6.908 3.759,-13.558 8.608,-18.522 2.649,-2.712 5.8,-4.934 8.196,-7.872 2.908,-3.565 4.579,-8.123 4.662,-12.723 0.031,-1.728 -0.189,-3.555 -1.222,-4.942 -1.033,-1.386 -3.084,-2.128 -4.563,-1.234"
           id="XMLID_3816_-0"
           inkscape:connector-curvature="0"
           style="fill:#ffffff" />
      </g>
      <path
         d="m 63.046004,89.18137 c -2.771054,-3.04526 -7.728178,-1.17758 -10.493138,1.03134 -0.16148,0.10817 -0.319912,0.23917 -0.470728,0.39456 -0.158434,0.14167 -0.290969,0.28792 -0.400653,0.43874 -25.407166,26.79345 -14.770829,66.96382 12.354726,88.0537 2.661369,2.06876 5.950377,-1.52492 3.51447,-3.92274 -18.649391,-18.33557 -22.526428,-46.38126 -8.85092,-68.82543 2.278998,-3.73536 8.392379,-12.72795 4.346243,-17.17017 z"
         id="XMLID_440_-2"
         inkscape:connector-curvature="0"
         style="opacity:0.62999998;fill:#ffffff;stroke-width:1.52339411" />
      <g
         display="none"
         id="Capa_2-68"
         style="display:none" />
      <g
         display="none"
         id="Capa_3-77"
         style="display:none">
        <g
           display="inline"
           id="XMLID_528_-4"
           style="display:inline">
          <g
             id="XMLID_2864_-7">
            <path
               d="m -295.115,-19.288 c -15.214,6.737 -24.612,20.724 -30.829,35.639 -7.169,17.198 -11.31,35.881 -14.992,54.089 -7.519,37.173 -10.816,76.312 -2.523,113.65 7.941,35.758 27.651,67.435 57.682,88.698 29.222,20.689 65.052,30.788 100.487,33.167 37.115,2.492 76.078,-2.932 109.798,-19.132 33.565,-16.126 59.096,-43.918 70.596,-79.501 C 6.393,172.391 4.377,133.61 -8.874,99.523 -22.748,63.838 -47.557,33.298 -77.052,9.249 c -30.861,-25.164 -68.276,-46.583 -108.311,-51.688 -35.328,-4.505 -73.881,6.342 -96.752,34.95 -4.933,6.171 -8.813,12.974 -11.736,20.307 -0.715,1.793 2.185,2.572 2.893,0.797 13.176,-33.054 48.615,-52.32 83.037,-54.003 40.84,-1.997 80.003,16.718 112.695,39.626 59.351,41.588 104.572,109.559 92.812,184.644 -5.651,36.081 -24.609,68.498 -55.021,89.135 -30.553,20.733 -68.273,29.354 -104.783,30.385 -34.452,0.973 -69.825,-5.114 -100.831,-20.56 -31.954,-15.919 -57.236,-42.09 -70.265,-75.515 -13.134,-33.693 -13.966,-70.921 -9.603,-106.422 2.289,-18.628 6.083,-37.059 10.783,-55.221 4.199,-16.219 9.007,-33.091 19.169,-46.709 5.087,-6.816 11.572,-12.224 19.363,-15.673 1.763,-0.78 0.239,-3.365 -1.513,-2.59 l 0,0 z"
               id="XMLID_2805_-1"
               inkscape:connector-curvature="0"
               style="fill:#d60523" />
          </g>
        </g>
      </g>
      <g
         transform="matrix(1.5233941,0,0,1.5233941,-275.17072,-301.74241)"
         enable-background="new    "
         id="XMLID_112_-0"
         style="display:inline;opacity:1;fill:#000000;fill-opacity:1">
        <linearGradient
           y2="96.773903"
           x2="198.43359"
           y1="229.5"
           x1="198.43359"
           gradientUnits="userSpaceOnUse"
           id="linearGradient1490">
          <stop
             id="stop1486"
             style="stop-color:#000000"
             offset="0" />
          <stop
             id="stop1488"
             style="stop-color:#000000;stop-opacity:0.5882"
             offset="1" />
        </linearGradient>
        <linearGradient
           y2="49.428699"
           x2="151.83591"
           y1="210.5"
           x1="151.83591"
           gradientUnits="userSpaceOnUse"
           id="linearGradient1497">
          <stop
             id="stop1493"
             style="stop-color:#000000"
             offset="0" />
          <stop
             id="stop1495"
             style="stop-color:#000000;stop-opacity:0.5882"
             offset="1" />
        </linearGradient>
        <linearGradient
           y2="97.130402"
           x2="103.207"
           y1="230.5"
           x1="103.207"
           gradientUnits="userSpaceOnUse"
           id="linearGradient1504">
          <stop
             id="stop1500"
             style="stop-color:#000000"
             offset="0" />
          <stop
             id="stop1502"
             style="stop-color:#000000;stop-opacity:0.5882"
             offset="1" />
        </linearGradient>
        <g
           style="fill:#000000;fill-opacity:1;stroke:#232627;stroke-opacity:1"
           id="g1677"
           transform="matrix(0.11202634,0,0,0.11202634,245.44304,345.0479)">
          <g
             style="fill:#000000;fill-opacity:1;stroke:#232627;stroke-opacity:1"
             transform="translate(659.52542,-208.27119)"
             id="g1653">
            <path
               inkscape:connector-curvature="0"
               id="path1667"
               d="m 133.47043,509.73822 c -0.31221,-1.24397 -0.43329,-5.63147 -0.26905,-9.75 L 133.5,492.5 h 123 123 l 0.29862,7.48822 c 0.16424,4.11853 0.0432,8.50603 -0.26905,9.75 L 378.9619,512 H 256.5 134.0381 Z m -0.0208,-35.00899 c -0.26987,-0.70328 -0.36893,-10.94256 -0.22013,-22.75396 L 133.5,430.5 h 123 123 v 22.5 22.5 l -122.77987,0.25395 c -98.954,0.20468 -122.87508,0.006 -123.27054,-1.02472 z m 0.004,-69.98877 c -0.2675,-0.6971 -0.36656,-13.86138 -0.22013,-29.25396 L 133.5,347.5 h 123 123 v 29 29 l -122.77987,0.25395 c -98.3885,0.20351 -122.87649,0.002 -123.26623,-1.01349 z m 0.0179,-83.98651 C 133.21413,320.06428 132.89007,303.075 132.75166,283 L 132.5,246.5 77.583101,246 C 40.000158,245.65782 22.554071,245.16339 22.310952,244.43355 21.768837,242.80614 252.38909,2.8321403 255.72563,1.5517902 c 1.25937,-0.4832646 4.3929,2.1349513 12.14587,10.1484588 14.92518,15.42673 28.23397,29.248001 56.13696,58.298617 13.47035,14.024377 30.81668,32.024374 38.54741,40.000004 7.73072,7.97562 19.8462,20.57613 26.92328,28.00113 7.07707,7.425 13.35193,13.95361 13.94413,14.50802 0.5922,0.55442 6.25867,6.40442 12.59215,13 6.33349,6.59559 22.53349,23.45056 36,37.45549 37.68976,39.19666 38.48457,40.05029 38.48457,41.33283 0,0.91756 -13.07294,1.3225 -55,1.70366 l -55,0.5 -0.5,37.5 -0.5,37.5 -122.77987,0.25395 c -97.7007,0.20209 -122.87556,-0.002 -123.24834,-1 z"
               style="fill:#000000;fill-opacity:1;stroke:#232627;stroke-opacity:1" />
            <path
               inkscape:connector-curvature="0"
               id="path1665"
               d="M 134.21247,502.75 134.5,493.5 h 122 122 l 0.28753,9.25 0.28752,9.25 H 256.5 133.92495 Z m 0.23626,-29.02301 c -0.27036,-0.70455 -0.36942,-10.49384 -0.22015,-21.75399 L 134.5,431.5 h 122 122 v 21.5 21.5 l -121.77986,0.25399 c -98.25598,0.20492 -121.8748,0.007 -122.27141,-1.027 z m 0.005,-69.98791 c -0.26781,-0.6979 -0.36687,-13.41219 -0.22015,-28.25399 L 134.5,348.5 h 122 122 v 28 28 l -121.77986,0.25399 c -97.65386,0.20366 -121.87631,0.003 -122.26677,-1.01491 z m 0.0184,-83.98509 C 134.21413,319.06429 133.89007,302.075 133.75166,282 L 133.5,245.5 78.678327,245.24143 c -45.33568,-0.21383 -54.766013,-0.49145 -54.5,-1.60443 C 24.565666,242.0164 252.71459,4.5444059 255.60456,2.7537792 256.38575,2.2697479 269.74827,15.445615 293.63579,40.253779 313.89057,61.289201 336.55525,84.8 344.00173,92.5 c 7.44649,7.7 24.5854,25.475 38.08647,39.5 13.50107,14.025 43.11961,44.78728 65.81898,68.36062 23.7834,24.69911 40.89844,43.23376 40.39099,43.74121 -0.48432,0.48432 -25.16205,0.99705 -54.83938,1.13938 L 379.5,245.5 379,283 l -0.5,37.5 -121.77986,0.25399 c -96.90065,0.20209 -121.87556,-0.002 -122.24834,-1 z"
               style="fill:#000000;fill-opacity:1;stroke:#232627;stroke-opacity:1" />
            <path
               inkscape:connector-curvature="0"
               id="path1663"
               d="m 134.79048,504.25 c 0.18114,-4.2625 0.51326,-8.3125 0.73805,-9 0.32396,-0.99083 25.4059,-1.25 120.97147,-1.25 95.56557,0 120.64751,0.25917 120.97147,1.25 0.22479,0.6875 0.55691,4.7375 0.73805,9 l 0.32935,7.75 H 256.5 134.46113 Z m 0.65731,-31.52546 c -0.27088,-0.70592 -0.36996,-10.04522 -0.22015,-20.75401 L 135.5,432.5 h 121 121 v 20.5 20.5 l -120.77984,0.25402 c -97.56545,0.20519 -120.87451,0.007 -121.27237,-1.02948 z m 0.005,-69.98694 c -0.26813,-0.69874 -0.3672,-12.96305 -0.22016,-27.25402 L 135.5,349.5 h 121 121 v 27 27 l -120.77984,0.25402 c -96.92271,0.20384 -120.87614,0.003 -121.26736,-1.01642 z m 0.019,-83.98358 C 135.21414,318.06431 134.89007,301.075 134.75166,281 L 134.5,244.5 80.25,244.24139 C 50.4125,244.09915 26,243.60788 26,243.14967 26,242.69146 69.0875,197.54813 121.75,142.83117 174.4125,88.114199 226.03042,34.477873 236.4565,23.63933 246.88257,12.800786 255.97266,4.0604876 256.6567,4.2164436 257.70943,4.4564571 293.63249,41.623595 468,222.87894 c 10.175,10.57693 18.6487,19.6522 18.83045,20.16727 0.20202,0.57251 -20.7858,1.03702 -54,1.19514 L 378.5,244.5 378,282 l -0.5,37.5 -120.77984,0.25402 c -96.10062,0.20211 -120.87558,-0.002 -121.24835,-1 z"
               style="fill:#000000;fill-opacity:1;stroke:#232627;stroke-opacity:1" />
            <path
               inkscape:connector-curvature="0"
               id="path1661"
               d="m 134.79048,504.25 c 0.18114,-4.2625 0.51326,-8.3125 0.73805,-9 0.32396,-0.99083 25.4059,-1.25 120.97147,-1.25 95.56557,0 120.64751,0.25917 120.97147,1.25 0.22479,0.6875 0.55691,4.7375 0.73805,9 l 0.32935,7.75 H 256.5 134.46113 Z m 0.65731,-31.52546 c -0.27088,-0.70592 -0.36996,-10.04522 -0.22015,-20.75401 L 135.5,432.5 h 121 121 v 20.5 20.5 l -120.77984,0.25402 c -97.56545,0.20519 -120.87451,0.007 -121.27237,-1.02948 z m 0.005,-69.98694 c -0.26813,-0.69874 -0.3672,-12.96305 -0.22016,-27.25402 L 135.5,349.5 h 121 121 v 27 27 l -120.77984,0.25402 c -96.92271,0.20384 -120.87614,0.003 -121.26736,-1.01642 z m 0.007,-83.8021 c -0.36457,-0.58988 -0.50474,-17.27722 -0.3115,-37.08297 0.32741,-33.55625 0.23051,-36.09894 -1.4219,-37.30875 -1.40362,-1.02765 -12.03486,-1.26761 -51.000003,-1.15113 C 55.652032,243.47358 31.925,243.27098 30,242.94242 L 26.5,242.34505 48,220.444 C 97.083965,170.44446 103.73134,164 106.22118,164 c 1.38677,0 3.64789,-1.30767 5.34173,-3.08928 1.6154,-1.6991 4.24937,-3.77432 5.85326,-4.6116 2.96203,-1.54628 14.24492,-11.53404 38.58383,-34.15489 7.425,-6.90088 15.5246,-14.36892 17.99912,-16.59564 l 4.49911,-4.04859 -3.54641,4 c -1.95052,2.2 -8.74715,9.625 -15.10362,16.5 C 139.63472,143.86239 130,154.89082 130,156.16587 c 0,0.6814 -1.43828,2.72284 -3.19617,4.53652 L 123.60767,164 h 2.50907 c 1.50349,0 3.68621,-1.23813 5.44617,-3.08928 1.6154,-1.6991 4.24937,-3.77432 5.85326,-4.6116 2.96203,-1.54628 14.24492,-11.53404 38.58383,-34.15489 7.425,-6.90088 15.5246,-14.36892 17.99912,-16.59564 l 4.49911,-4.04859 -3.54641,4 c -1.95052,2.2 -8.74715,9.625 -15.10362,16.5 C 159.63472,143.86239 150,154.89082 150,156.16587 c 0,0.6814 -1.43828,2.72284 -3.19617,4.53652 L 143.60767,164 h 2.50907 c 1.50349,0 3.68621,-1.23813 5.44617,-3.08928 1.6154,-1.6991 4.24937,-3.77432 5.85326,-4.6116 2.96203,-1.54628 14.24492,-11.53404 38.58383,-34.15489 7.425,-6.90088 15.5246,-14.36892 17.99912,-16.59564 l 4.49911,-4.04859 -3.54641,4 c -1.95052,2.2 -8.74715,9.625 -15.10362,16.5 C 179.63472,143.86239 170,154.89082 170,156.16587 c 0,0.6814 -1.43828,2.72284 -3.19617,4.53652 L 163.60767,164 h 2.50907 c 1.50349,0 3.68621,-1.23813 5.44617,-3.08928 1.6154,-1.6991 4.24937,-3.77432 5.85326,-4.6116 2.96203,-1.54628 14.24492,-11.53404 38.58383,-34.15489 7.425,-6.90088 15.5246,-14.36892 17.99912,-16.59564 l 4.49911,-4.04859 -3.54641,4 c -1.95052,2.2 -8.74715,9.625 -15.10362,16.5 C 199.63472,143.86239 190,154.89082 190,156.16587 c 0,0.6814 -1.43828,2.72284 -3.19617,4.53652 L 183.60767,164 h 2.50907 c 1.50349,0 3.68621,-1.23813 5.44617,-3.08928 1.6154,-1.6991 4.24937,-3.77432 5.85326,-4.6116 2.96203,-1.54628 14.24492,-11.53404 38.58383,-34.15489 7.425,-6.90088 15.5246,-14.36892 17.99912,-16.59564 l 4.49911,-4.04859 -3.54641,4 c -1.95052,2.2 -8.74715,9.625 -15.10362,16.5 C 219.63472,143.86239 210,154.89082 210,156.16587 c 0,0.6814 -1.43828,2.72284 -3.19617,4.53652 L 203.60767,164 h 2.50907 c 1.50349,0 3.68621,-1.23813 5.44617,-3.08928 1.6154,-1.6991 4.24937,-3.77432 5.85326,-4.6116 2.96203,-1.54628 14.24492,-11.53404 38.58383,-34.15489 7.425,-6.90088 15.5246,-14.36892 17.99912,-16.59564 l 4.49911,-4.04859 -3.54641,4 c -1.95052,2.2 -8.74715,9.625 -15.10362,16.5 C 239.63472,143.86239 230,154.89082 230,156.16587 c 0,0.6814 -1.43828,2.72284 -3.19617,4.53652 L 223.60767,164 h 2.50907 c 1.50349,0 3.68621,-1.23813 5.44617,-3.08928 1.6154,-1.6991 4.24937,-3.77432 5.85326,-4.6116 2.96203,-1.54628 14.24492,-11.53404 38.58383,-34.15489 7.425,-6.90088 15.5246,-14.36892 17.99912,-16.59564 l 4.49911,-4.04859 -3.54641,4 c -1.95052,2.2 -8.74715,9.625 -15.10362,16.5 C 259.63472,143.86239 250,154.89082 250,156.16587 c 0,0.6814 -1.43828,2.72284 -3.19617,4.53652 L 243.60767,164 h 2.50907 c 1.50349,0 3.68621,-1.23813 5.44617,-3.08928 1.6154,-1.6991 4.24937,-3.77432 5.85326,-4.6116 2.96203,-1.54628 14.24492,-11.53404 38.58383,-34.15489 7.425,-6.90088 15.5246,-14.36892 17.99912,-16.59564 l 4.49911,-4.04859 -3.54641,4 c -1.95052,2.2 -8.74715,9.625 -15.10362,16.5 C 279.63472,143.86239 270,154.89082 270,156.16587 c 0,0.6814 -1.43828,2.72284 -3.19617,4.53652 L 263.60767,164 h 2.50907 c 1.50349,0 3.68621,-1.23813 5.44617,-3.08928 1.6154,-1.6991 4.24937,-3.77432 5.85326,-4.6116 2.96203,-1.54628 14.24492,-11.53404 38.58383,-34.15489 7.425,-6.90088 15.5246,-14.36892 17.99912,-16.59564 l 4.49911,-4.04859 -3.54641,4 c -1.95052,2.2 -8.74715,9.625 -15.10362,16.5 C 299.63472,143.86239 290,154.89082 290,156.16587 c 0,0.6814 -1.43828,2.72284 -3.19617,4.53652 L 283.60767,164 h 2.50907 c 1.50349,0 3.68621,-1.23813 5.44617,-3.08928 1.6154,-1.6991 4.24937,-3.77432 5.85326,-4.6116 2.95562,-1.54294 14.50344,-11.76279 38.08383,-33.70433 7.15,-6.65307 14.11725,-12.99611 15.48277,-14.09564 2.48258,-1.999 2.48265,-1.999 1.0237,8.5e-4 -0.80248,1.1 -6.46676,7.4 -12.58728,14 C 320.05123,143.38525 310,154.88738 310,156.16587 c 0,0.6814 -1.43828,2.72284 -3.19617,4.53652 L 303.60767,164 h 2.50907 c 1.50349,0 3.68621,-1.23813 5.44617,-3.08928 1.6154,-1.6991 4.25463,-3.77705 5.86496,-4.61766 1.61033,-0.84061 9.62248,-7.66293 17.80478,-15.16072 26.26311,-24.06599 27.81553,-25.4175 28.45798,-24.77505 0.64873,0.64874 -0.47309,1.95988 -21.44063,25.05895 -6.7375,7.42243 -12.25,14.0563 -12.25,14.74193 0,0.68564 -1.43828,2.73054 -3.19617,4.54422 L 323.60767,164 h 2.50907 c 1.50349,0 3.68621,-1.23813 5.44617,-3.08928 1.6154,-1.6991 4.25463,-3.77705 5.86496,-4.61766 2.69083,-1.40464 31.76429,-27.17693 33.10475,-29.34584 0.80499,-1.3025 3.46738,-1.1968 3.46738,0.13766 0,0.59668 -5.4,7.10178 -12,14.45578 -6.6,7.354 -12,13.93188 -12,14.61751 0,0.68564 -1.43828,2.73054 -3.19617,4.54422 L 343.60767,164 h 2.50907 c 1.50349,0 3.68621,-1.23813 5.44617,-3.08928 1.6154,-1.6991 4.27067,-3.78534 5.9006,-4.63609 1.62993,-0.85075 7.57487,-5.76057 13.21096,-10.91072 5.6361,-5.15015 10.94002,-9.36391 11.78649,-9.36391 3.15301,0 1.33233,3.71884 -5.46439,11.16132 -3.84811,4.21372 -6.99657,8.2423 -6.99657,8.95239 0,0.71009 -1.43828,2.775 -3.19617,4.58868 L 363.60767,164 h 2.50907 c 1.50349,0 3.68621,-1.23813 5.44617,-3.08928 1.6154,-1.6991 4.28709,-3.77204 5.93709,-4.60653 1.65,-0.83449 5.36395,-3.81787 8.25321,-6.62973 l 5.25321,-5.11248 2.20107,2.20107 2.20107,2.20107 -2.70428,2.82266 C 391.21693,153.33924 390,155.23839 390,156.00711 c 0,0.76872 -1.43828,2.8816 -3.19617,4.69528 L 383.60767,164 h 2.5 c 1.53503,0 3.78435,-1.32512 5.82745,-3.43306 4.42668,-4.56717 8.50558,-6.27601 10.67765,-4.47335 2.27676,1.88955 3.33937,5.17997 2.14962,6.65641 -0.74579,0.9255 -0.44341,1.25 1.16483,1.25 3.33602,0 7.55633,2.5711 8.83815,5.38438 0.6351,1.3939 2.97271,3.73745 5.19468,5.20788 2.22197,1.47043 4.03995,3.00877 4.03995,3.41854 0,0.40977 6.8625,7.71999 15.25,16.24494 8.3875,8.52496 22.41781,22.86499 31.17846,31.86675 l 15.92846,16.36684 -3.42846,0.52638 c -1.88565,0.2895 -25.76234,0.45721 -53.0593,0.37267 -27.29697,-0.0845 -50.24697,0.22762 -51,0.69367 -1.11925,0.69269 -1.36916,7.65307 -1.36916,38.13266 V 319.5 l -120.68851,0.25401 c -85.07687,0.17906 -120.88409,-0.0625 -121.35135,-0.81851 z"
               style="fill:#000000;fill-opacity:1;stroke:#232627;stroke-opacity:1" />
            <path
               inkscape:connector-curvature="0"
               id="path1659"
               d="m 134.79048,504.25 c 0.18114,-4.2625 0.51326,-8.3125 0.73805,-9 0.32396,-0.99083 25.4059,-1.25 120.97147,-1.25 95.56557,0 120.64751,0.25917 120.97147,1.25 0.22479,0.6875 0.55691,4.7375 0.73805,9 l 0.32935,7.75 H 256.5 134.46113 Z m 0.65731,-31.52546 c -0.27088,-0.70592 -0.36996,-10.04522 -0.22015,-20.75401 L 135.5,432.5 h 121 121 v 20.5 20.5 l -120.77984,0.25402 c -97.56545,0.20519 -120.87451,0.007 -121.27237,-1.02948 z m 0.005,-69.98694 c -0.26813,-0.69874 -0.3672,-12.96305 -0.22016,-27.25402 L 135.5,349.5 h 121 121 v 27 27 l -120.77984,0.25402 c -96.92271,0.20384 -120.87614,0.003 -121.26736,-1.01642 z m 0.41522,-89.23235 c -0.0726,-3.30289 -0.0692,-19.64103 0.007,-36.30698 0.0892,-19.38564 -0.23615,-31.00359 -0.90321,-32.25 -1.01293,-1.89268 -2.56102,-1.94954 -54.257494,-1.99281 -50.398108,-0.0422 -53.091948,-0.13481 -50.893518,-1.75 1.276714,-0.938 4.554235,-3.61796 7.28338,-5.95546 C 39.833823,232.9125 42.522632,231 43.07981,231 44.213239,231 59.280938,217.34583 84,193.91862 113.18894,166.25514 114.34448,166.04207 88.981915,193 63.757545,219.81105 55,229.61761 55,231.05242 c 0,0.7438 -1.438275,2.83629 -3.196167,4.64997 L 48.607666,239 h 2.509076 c 1.503483,0 3.686209,-1.23813 5.446167,-3.08928 1.6154,-1.6991 4.287091,-3.783 5.937091,-4.6309 3.192525,-1.64056 14.782978,-12.07923 41.5,-37.37601 C 133.19471,166.26106 134.33268,166.05461 108.98192,193 83.757545,219.81105 75,229.61761 75,231.05242 c 0,0.7438 -1.438275,2.83629 -3.196167,4.64997 L 68.607666,239 h 2.509076 c 1.503483,0 3.686209,-1.23813 5.446167,-3.08928 1.6154,-1.6991 4.287091,-3.783 5.937091,-4.6309 3.192525,-1.64056 14.782978,-12.07923 41.5,-37.37601 C 153.19471,166.26106 154.33268,166.05461 128.98192,193 103.75755,219.81105 95,229.61761 95,231.05242 c 0,0.7438 -1.438275,2.83629 -3.196167,4.64997 L 88.607666,239 h 2.509076 c 1.503483,0 3.686209,-1.23813 5.446167,-3.08928 1.6154,-1.6991 4.287091,-3.783 5.937091,-4.6309 3.19252,-1.64056 14.78298,-12.07923 41.5,-37.37601 C 173.19471,166.26106 174.33268,166.05461 148.98192,193 123.75755,219.81105 115,229.61761 115,231.05242 c 0,0.7438 -1.43828,2.83629 -3.19617,4.64997 L 108.60767,239 h 2.50907 c 1.50349,0 3.68621,-1.23813 5.44617,-3.08928 1.6154,-1.6991 4.28709,-3.783 5.93709,-4.6309 3.19252,-1.64056 14.78298,-12.07923 41.5,-37.37601 C 193.19471,166.26106 194.33268,166.05461 168.98192,193 143.75755,219.81105 135,229.61761 135,231.05242 c 0,0.7438 -1.43828,2.83629 -3.19617,4.64997 L 128.60767,239 h 2.50907 c 1.50349,0 3.68621,-1.23813 5.44617,-3.08928 1.6154,-1.6991 4.28709,-3.783 5.93709,-4.6309 3.19252,-1.64056 14.78298,-12.07923 41.5,-37.37601 C 213.19471,166.26106 214.33268,166.05461 188.98192,193 163.75755,219.81105 155,229.61761 155,231.05242 c 0,0.7438 -1.43828,2.83629 -3.19617,4.64997 L 148.60767,239 h 2.50907 c 1.50349,0 3.68621,-1.23813 5.44617,-3.08928 1.6154,-1.6991 4.28709,-3.783 5.93709,-4.6309 3.19252,-1.64056 14.78298,-12.07923 41.5,-37.37601 C 233.19471,166.26106 234.33268,166.05461 208.98192,193 183.75755,219.81105 175,229.61761 175,231.05242 c 0,0.7438 -1.43828,2.83629 -3.19617,4.64997 L 168.60767,239 h 2.50907 c 1.50349,0 3.68621,-1.23813 5.44617,-3.08928 1.6154,-1.6991 4.28709,-3.783 5.93709,-4.6309 3.19252,-1.64056 14.78298,-12.07923 41.5,-37.37601 C 253.19471,166.26106 254.33268,166.05461 228.98192,193 203.75755,219.81105 195,229.61761 195,231.05242 c 0,0.7438 -1.43828,2.83629 -3.19617,4.64997 L 188.60767,239 h 2.50907 c 1.50349,0 3.68621,-1.23813 5.44617,-3.08928 1.6154,-1.6991 4.28709,-3.783 5.93709,-4.6309 3.19252,-1.64056 14.78298,-12.07923 41.5,-37.37601 C 273.19471,166.26106 274.33268,166.05461 248.98192,193 223.75755,219.81105 215,229.61761 215,231.05242 c 0,0.7438 -1.43828,2.83629 -3.19617,4.64997 L 208.60767,239 h 2.50907 c 1.50349,0 3.68621,-1.23813 5.44617,-3.08928 1.6154,-1.6991 4.28709,-3.783 5.93709,-4.6309 3.19252,-1.64056 14.78298,-12.07923 41.5,-37.37601 C 293.19471,166.26106 294.33268,166.05461 268.98192,193 243.75755,219.81105 235,229.61761 235,231.05242 c 0,0.7438 -1.43828,2.83629 -3.19617,4.64997 L 228.60767,239 h 2.50907 c 1.50349,0 3.68621,-1.23813 5.44617,-3.08928 1.6154,-1.6991 4.28709,-3.783 5.93709,-4.6309 3.19252,-1.64056 14.78298,-12.07923 41.5,-37.37601 C 313.19471,166.26106 314.33268,166.05461 288.98192,193 263.75755,219.81105 255,229.61761 255,231.05242 c 0,0.7438 -1.43828,2.83629 -3.19617,4.64997 L 248.60767,239 h 2.50907 c 1.50349,0 3.68621,-1.23813 5.44617,-3.08928 1.6154,-1.6991 4.28709,-3.783 5.93709,-4.6309 3.19252,-1.64056 14.78298,-12.07923 41.5,-37.37601 C 333.19471,166.26106 334.33268,166.05461 308.98192,193 283.75755,219.81105 275,229.61761 275,231.05242 c 0,0.7438 -1.43828,2.83629 -3.19617,4.64997 L 268.60767,239 h 2.50907 c 1.50349,0 3.68621,-1.23813 5.44617,-3.08928 1.6154,-1.6991 4.28709,-3.783 5.93709,-4.6309 3.19252,-1.64056 14.78298,-12.07923 41.5,-37.37601 C 353.19471,166.26106 354.33268,166.05461 328.98192,193 303.75755,219.81105 295,229.61761 295,231.05242 c 0,0.7438 -1.43828,2.83629 -3.19617,4.64997 L 288.60767,239 h 2.50907 c 1.50349,0 3.68621,-1.23813 5.44617,-3.08928 1.6154,-1.6991 4.28709,-3.783 5.93709,-4.6309 3.19252,-1.64056 14.78298,-12.07923 41.5,-37.37601 C 373.19471,166.26106 374.33268,166.05461 348.98192,193 323.75755,219.81105 315,229.61761 315,231.05242 c 0,0.7438 -1.43828,2.83629 -3.19617,4.64997 L 308.60767,239 h 2.50907 c 1.50349,0 3.68621,-1.23813 5.44617,-3.08928 1.6154,-1.6991 4.28709,-3.783 5.93709,-4.6309 3.19252,-1.64056 14.78298,-12.07923 41.5,-37.37601 C 393.19471,166.26106 394.33268,166.05461 368.98192,193 343.75755,219.81105 335,229.61761 335,231.05242 c 0,0.7438 -1.43828,2.83629 -3.19617,4.64997 L 328.60767,239 h 2.50907 c 1.50349,0 3.68621,-1.23813 5.44617,-3.08928 1.6154,-1.6991 4.28709,-3.783 5.93709,-4.6309 3.19252,-1.64056 14.78298,-12.07923 41.5,-37.37601 C 413.19471,166.26106 414.33268,166.05461 388.98192,193 363.75755,219.81105 355,229.61761 355,231.05242 c 0,0.7438 -1.43828,2.83629 -3.19617,4.64997 C 348.69364,238.9113 348.67045,239 350.942,239 c 1.33348,0 4.19492,-1.71502 6.67383,-4 2.38671,-2.2 4.79983,-4 5.36247,-4 1.16766,0 19.544,-16.63226 42.26094,-38.25 8.525,-8.1125 16.06018,-14.75 16.74485,-14.75 0.68467,0 -4.76916,6.34481 -12.11962,14.09958 C 388.21656,214.93824 375,229.72689 375,231.11115 c 0,0.7115 -1.43828,2.77756 -3.19617,4.59124 L 368.60767,239 h 2.50907 c 1.50368,0 3.68598,-1.23809 5.44617,-3.08978 1.6154,-1.69939 4.36153,-3.83689 6.10251,-4.75 C 384.4064,230.2471 393.54936,222.3 402.9831,213.5 c 26.04159,-24.29216 28.78728,-26.68055 29.44623,-25.61435 0.33514,0.54227 -4.01186,5.85675 -9.65999,11.80997 C 404.66008,218.78303 395,229.69658 395,231.06824 c 0,0.7351 -1.43828,2.82047 -3.19617,4.63415 L 388.60767,239 h 2.50907 c 1.50368,0 3.68598,-1.23809 5.44617,-3.08978 1.6154,-1.69939 4.36582,-3.83689 6.11204,-4.75 1.74623,-0.91312 11.12455,-9.02189 20.84073,-18.01949 12.12762,-11.2307 17.98889,-16.03616 18.69645,-15.3286 0.70755,0.70755 -3.31797,5.78594 -12.84073,16.19919 -7.62927,8.34269 -14.02675,15.91556 -14.21662,16.8286 -0.18988,0.91305 -1.74065,3.12258 -3.44617,4.91008 -3.04009,3.18622 -3.05514,3.25 -0.76661,3.25 1.33348,0 4.19492,-1.71502 6.67383,-4 2.38671,-2.2 4.79983,-4 5.36247,-4 0.56264,0 6.94641,-5.4 14.18617,-12 7.23975,-6.6 13.55358,-12 14.03074,-12 0.47716,0 1.12422,0.66883 1.43791,1.4863 0.36578,0.95321 -2.69413,5.02407 -8.53139,11.35002 -5.00595,5.42505 -9.10173,10.4723 -9.10173,11.2161 0,0.7438 -1.43828,2.83629 -3.19617,4.64997 L 428.60767,239 h 2.50907 c 1.50349,0 3.68621,-1.23813 5.44617,-3.08928 1.6154,-1.6991 4.28709,-3.7924 5.93709,-4.65177 1.65,-0.85937 6.14562,-4.43137 9.99027,-7.93778 3.84465,-3.5064 7.66965,-6.246 8.5,-6.08801 3.01774,0.57421 2.15255,4.22148 -1.95219,8.22965 -2.22094,2.1687 -4.03808,4.61784 -4.03808,5.44253 0,0.8247 -1.43828,2.98337 -3.19617,4.79705 C 448.69364,238.9113 448.67045,239 450.942,239 c 1.28389,0 4.25037,-1.6875 6.5922,-3.75 5.63018,-4.95864 11.36627,-8.41582 13.33449,-8.03677 0.87449,0.16841 2.02293,1.53728 2.55209,3.04194 0.82663,2.35052 0.55677,3.15882 -1.91643,5.74029 L 468.62582,239 h 2.35835 c 1.29709,0 3.14903,-0.71556 4.11543,-1.59013 2.30312,-2.0843 5.27864,-1.09179 7.94251,2.64927 L 485.13619,243 h -52.94565 c -41.93289,0 -53.16769,0.26755 -54.01316,1.28627 -0.71955,0.867 -1.02485,13.31931 -0.93663,38.20196 l 0.13088,36.91567 -120.68581,0.0533 L 136,319.5105 l -0.13198,-6.00526 z"
               style="fill:#000000;fill-opacity:1;stroke:#232627;stroke-opacity:1" />
            <path
               inkscape:connector-curvature="0"
               id="path1657"
               d="m 134.79048,504.25 c 0.18114,-4.2625 0.51326,-8.3125 0.73805,-9 0.32396,-0.99083 25.4059,-1.25 120.97147,-1.25 95.56557,0 120.64751,0.25917 120.97147,1.25 0.22479,0.6875 0.55691,4.7375 0.73805,9 l 0.32935,7.75 H 256.5 134.46113 Z m 0.80946,-31.08829 c -0.64221,-1.03913 0.16824,-39.26322 0.84687,-39.94186 0.69462,-0.69461 239.48903,-0.61734 240.18409,0.0777 0.31706,0.31706 0.64231,9.49231 0.72279,20.38945 L 377.5,473.5 256.81149,473.75401 c -66.37867,0.1397 -120.92387,-0.12683 -121.21155,-0.5923 z M 136,380.91241 v -22.08759 l 4.75,-4.37271 c 4.09506,-3.76978 5.36305,-4.37817 9.19617,-4.4124 l 4.44616,-0.0397 -3.19616,3.29761 C 149.43828,355.11129 148,357.22417 148,357.99289 c 0,0.76872 -1.20919,2.6598 -2.68709,4.20239 L 142.62582,365 h 2.51277 c 1.41648,0 3.57049,-1.13319 4.9371,-2.59732 1.33337,-1.42852 3.99931,-3.41231 5.92431,-4.40842 1.925,-0.9961 4.82169,-3.20231 6.43709,-4.90268 2.43597,-2.5641 3.70642,-3.09158 7.44617,-3.09158 h 4.50907 l -3.19616,3.29761 C 169.43828,355.11129 168,357.22417 168,357.99289 c 0,0.76872 -1.20919,2.6598 -2.68709,4.20239 L 162.62582,365 h 2.51277 c 1.41648,0 3.57049,-1.13319 4.9371,-2.59732 1.33337,-1.42852 3.99931,-3.41231 5.92431,-4.40842 1.925,-0.9961 4.82169,-3.20231 6.43709,-4.90268 2.43597,-2.5641 3.70642,-3.09158 7.44617,-3.09158 h 4.50907 l -3.19616,3.29761 C 189.43828,355.11129 188,357.22417 188,357.99289 c 0,0.76872 -1.20919,2.6598 -2.68709,4.20239 L 182.62582,365 h 2.51277 c 1.41648,0 3.57049,-1.13319 4.9371,-2.59732 1.33337,-1.42852 3.99931,-3.41231 5.92431,-4.40842 1.925,-0.9961 4.82169,-3.20231 6.43709,-4.90268 2.43597,-2.5641 3.70642,-3.09158 7.44617,-3.09158 h 4.50907 l -3.19616,3.29761 C 209.43828,355.11129 208,357.22417 208,357.99289 c 0,0.76872 -1.20919,2.6598 -2.68709,4.20239 L 202.62582,365 h 2.51277 c 1.41648,0 3.57049,-1.13319 4.9371,-2.59732 1.33337,-1.42852 3.99931,-3.41231 5.92431,-4.40842 1.925,-0.9961 4.82169,-3.20231 6.43709,-4.90268 2.43597,-2.5641 3.70642,-3.09158 7.44617,-3.09158 h 4.50907 l -3.19616,3.29761 C 229.43828,355.11129 228,357.22417 228,357.99289 c 0,0.76872 -1.20919,2.6598 -2.68709,4.20239 L 222.62582,365 h 2.51277 c 1.41648,0 3.57049,-1.13319 4.9371,-2.59732 1.33337,-1.42852 3.99931,-3.41231 5.92431,-4.40842 1.925,-0.9961 4.82169,-3.20231 6.43709,-4.90268 2.43597,-2.5641 3.70642,-3.09158 7.44617,-3.09158 h 4.50907 l -3.19616,3.29761 C 249.43828,355.11129 248,357.22417 248,357.99289 c 0,0.76872 -1.20919,2.6598 -2.68709,4.20239 L 242.62582,365 h 2.51277 c 1.41648,0 3.57049,-1.13319 4.9371,-2.59732 1.33337,-1.42852 3.99931,-3.41231 5.92431,-4.40842 1.925,-0.9961 4.82169,-3.20231 6.43709,-4.90268 2.43597,-2.5641 3.70642,-3.09158 7.44617,-3.09158 h 4.50907 l -3.19616,3.29761 C 269.43828,355.11129 268,357.22417 268,357.99289 c 0,0.76872 -1.20919,2.6598 -2.68709,4.20239 L 262.62582,365 h 2.51277 c 1.41648,0 3.57049,-1.13319 4.9371,-2.59732 1.33337,-1.42852 3.99931,-3.41231 5.92431,-4.40842 1.925,-0.9961 4.82169,-3.20231 6.43709,-4.90268 2.43597,-2.5641 3.70642,-3.09158 7.44617,-3.09158 h 4.50907 l -3.19616,3.29761 C 289.43828,355.11129 288,357.22417 288,357.99289 c 0,0.76872 -1.20919,2.6598 -2.68709,4.20239 L 282.62582,365 h 2.51277 c 1.41648,0 3.57049,-1.13319 4.9371,-2.59732 1.33337,-1.42852 3.99931,-3.41231 5.92431,-4.40842 1.925,-0.9961 4.82169,-3.20231 6.43709,-4.90268 2.43597,-2.5641 3.70642,-3.09158 7.44617,-3.09158 h 4.50907 l -3.19616,3.29761 C 309.43828,355.11129 308,357.22417 308,357.99289 c 0,0.76872 -1.20919,2.6598 -2.68709,4.20239 L 302.62582,365 h 2.51277 c 1.41648,0 3.57049,-1.13319 4.9371,-2.59732 1.33337,-1.42852 3.99931,-3.41231 5.92431,-4.40842 1.925,-0.9961 4.82169,-3.20231 6.43709,-4.90268 2.43597,-2.5641 3.70642,-3.09158 7.44617,-3.09158 h 4.50907 l -3.19616,3.29761 C 329.43828,355.11129 328,357.22417 328,357.99289 c 0,0.76872 -1.20919,2.6598 -2.68709,4.20239 L 322.62582,365 h 2.51277 c 1.41648,0 3.57049,-1.13319 4.9371,-2.59732 1.33337,-1.42852 3.99931,-3.41231 5.92431,-4.40842 1.925,-0.9961 4.82169,-3.20231 6.43709,-4.90268 2.43597,-2.5641 3.70642,-3.09158 7.44617,-3.09158 h 4.50907 l -3.19616,3.29761 C 349.43828,355.11129 348,357.22417 348,357.99289 c 0,0.76872 -1.20919,2.6598 -2.68709,4.20239 L 342.62582,365 h 2.51277 c 1.41648,0 3.57049,-1.13319 4.9371,-2.59732 1.33337,-1.42852 3.99931,-3.41231 5.92431,-4.40842 1.925,-0.9961 4.82169,-3.20231 6.43709,-4.90268 2.43597,-2.5641 3.70642,-3.09158 7.44617,-3.09158 h 4.50907 l -3.19616,3.29761 C 369.43828,355.11129 368,357.22417 368,357.99289 c 0,0.76872 -1.20919,2.6598 -2.68709,4.20239 L 362.62582,365 h 2.31589 c 1.27374,0 4.05923,-1.575 6.18997,-3.5 2.13074,-1.925 4.32279,-3.5 4.8712,-3.5 0.63328,0 0.99712,8.21 0.99712,22.5 V 403 H 256.5 136 Z M 145.5,313 c 3.26557,-3.3 6.61239,-6 7.43739,-6 0.84029,0 -1.1113,2.63884 -4.43739,6 -3.26557,3.3 -6.61239,6 -7.43739,6 -0.84029,0 1.1113,-2.63884 4.43739,-6 z m 20,0 c 3.26557,-3.3 6.61239,-6 7.43739,-6 0.84029,0 -1.1113,2.63884 -4.43739,6 -3.26557,3.3 -6.61239,6 -7.43739,6 -0.84029,0 1.1113,-2.63884 4.43739,-6 z m 20,0 c 3.26557,-3.3 6.61239,-6 7.43739,-6 0.84029,0 -1.1113,2.63884 -4.43739,6 -3.26557,3.3 -6.61239,6 -7.43739,6 -0.84029,0 1.1113,-2.63884 4.43739,-6 z m 20,0 c 3.26557,-3.3 6.61239,-6 7.43739,-6 0.84029,0 -1.1113,2.63884 -4.43739,6 -3.26557,3.3 -6.61239,6 -7.43739,6 -0.84029,0 1.1113,-2.63884 4.43739,-6 z m 20,0 c 3.26557,-3.3 6.61239,-6 7.43739,-6 0.84029,0 -1.1113,2.63884 -4.43739,6 -3.26557,3.3 -6.61239,6 -7.43739,6 -0.84029,0 1.1113,-2.63884 4.43739,-6 z m 20,0 c 3.26557,-3.3 6.61239,-6 7.43739,-6 0.84029,0 -1.1113,2.63884 -4.43739,6 -3.26557,3.3 -6.61239,6 -7.43739,6 -0.84029,0 1.1113,-2.63884 4.43739,-6 z m 20,0 c 3.26557,-3.3 6.61239,-6 7.43739,-6 0.84029,0 -1.1113,2.63884 -4.43739,6 -3.26557,3.3 -6.61239,6 -7.43739,6 -0.84029,0 1.1113,-2.63884 4.43739,-6 z m 20,0 c 3.26557,-3.3 6.61239,-6 7.43739,-6 0.84029,0 -1.1113,2.63884 -4.43739,6 -3.26557,3.3 -6.61239,6 -7.43739,6 -0.84029,0 1.1113,-2.63884 4.43739,-6 z m 20,0 c 3.26557,-3.3 6.61239,-6 7.43739,-6 0.84029,0 -1.1113,2.63884 -4.43739,6 -3.26557,3.3 -6.61239,6 -7.43739,6 -0.84029,0 1.1113,-2.63884 4.43739,-6 z m 20,0 c 3.26557,-3.3 6.61239,-6 7.43739,-6 0.84029,0 -1.1113,2.63884 -4.43739,6 -3.26557,3.3 -6.61239,6 -7.43739,6 -0.84029,0 1.1113,-2.63884 4.43739,-6 z m 20,0 c 3.26557,-3.3 6.61239,-6 7.43739,-6 0.84029,0 -1.1113,2.63884 -4.43739,6 -3.26557,3.3 -6.61239,6 -7.43739,6 -0.84029,0 1.1113,-2.63884 4.43739,-6 z m 20,0 c 3.26557,-3.3 6.61239,-6 7.43739,-6 0.84029,0 -1.1113,2.63884 -4.43739,6 -3.26557,3.3 -6.61239,6 -7.43739,6 -0.84029,0 1.1113,-2.63884 4.43739,-6 z"
               style="fill:#000000;fill-opacity:1;stroke:#232627;stroke-opacity:1" />
            <path
               inkscape:connector-curvature="0"
               id="path1655"
               d="m 134,511 c 0,-0.55 0.45,-1 1,-1 0.57778,0 1,-3.16667 1,-7.5 V 495 H 256.5 377 v 7.5 c 0,4.33333 0.42222,7.5 1,7.5 0.55,0 1,0.45 1,1 0,0.66122 -41.5,1 -122.5,1 -81,0 -122.5,-0.33878 -122.5,-1 z m 13.65446,-41.79264 c 2.28496,-2.03905 10.15996,-9.34269 17.5,-16.23031 22.61959,-21.22536 22.71639,-20.1374 0.34554,3.88385 -13.90863,14.93473 -15.25465,16.1047 -18.5,16.08022 l -3.5,-0.0264 4.15446,-3.70737 z m 20,0 c 2.28496,-2.03905 10.15996,-9.34269 17.5,-16.23031 22.61959,-21.22536 22.71639,-20.1374 0.34554,3.88385 -13.90863,14.93473 -15.25465,16.1047 -18.5,16.08022 l -3.5,-0.0264 4.15446,-3.70737 z m 20,0 c 2.28496,-2.03905 10.15996,-9.34269 17.5,-16.23031 22.61959,-21.22536 22.71639,-20.1374 0.34554,3.88385 -13.90863,14.93473 -15.25465,16.1047 -18.5,16.08022 l -3.5,-0.0264 4.15446,-3.70737 z m 20,0 c 2.28496,-2.03905 10.15996,-9.34269 17.5,-16.23031 22.61959,-21.22536 22.71639,-20.1374 0.34554,3.88385 -13.90863,14.93473 -15.25465,16.1047 -18.5,16.08022 l -3.5,-0.0264 4.15446,-3.70737 z m 20,0 c 2.28496,-2.03905 10.15996,-9.34269 17.5,-16.23031 22.61959,-21.22536 22.71639,-20.1374 0.34554,3.88385 -13.90863,14.93473 -15.25465,16.1047 -18.5,16.08022 l -3.5,-0.0264 4.15446,-3.70737 z m 20,0 c 2.28496,-2.03905 10.15996,-9.34269 17.5,-16.23031 22.61959,-21.22536 22.71639,-20.1374 0.34554,3.88385 -13.90863,14.93473 -15.25465,16.1047 -18.5,16.08022 l -3.5,-0.0264 4.15446,-3.70737 z m 20,0 c 2.28496,-2.03905 10.15996,-9.34269 17.5,-16.23031 22.61959,-21.22536 22.71639,-20.1374 0.34554,3.88385 -13.90863,14.93473 -15.25465,16.1047 -18.5,16.08022 l -3.5,-0.0264 4.15446,-3.70737 z m 20,0 c 2.28496,-2.03905 10.15996,-9.34269 17.5,-16.23031 22.61959,-21.22536 22.71639,-20.1374 0.34554,3.88385 -13.90863,14.93473 -15.25465,16.1047 -18.5,16.08022 l -3.5,-0.0264 4.15446,-3.70737 z m 20,0 c 2.28496,-2.03905 10.15996,-9.34269 17.5,-16.23031 22.61959,-21.22536 22.71639,-20.1374 0.34554,3.88385 -13.90863,14.93473 -15.25465,16.1047 -18.5,16.08022 l -3.5,-0.0264 4.15446,-3.70737 z m 20,0 c 2.28496,-2.03905 10.15996,-9.34269 17.5,-16.23031 22.61959,-21.22536 22.71639,-20.1374 0.34554,3.88385 -13.90863,14.93473 -15.25465,16.1047 -18.5,16.08022 l -3.5,-0.0264 4.15446,-3.70737 z m 26.94697,-6.45542 c 5.99421,-5.63644 13.53791,-12.72394 16.76377,-15.75 10.24403,-9.60956 5.65697,-2.63772 -7.8652,11.95426 -11.78936,12.72208 -13.31649,14.02921 -16.39857,14.03615 -3.37459,0.008 -3.32167,-0.0647 7.5,-10.24041 z M 370,467.13734 c 5.56475,-5.07372 6.54809,-5.63773 6.83423,-3.9199 0.18707,1.12313 -0.95813,3.60826 -2.60113,5.64456 -2.3382,2.89791 -3.72851,3.69535 -6.83423,3.91989 L 363.5,473.06378 Z m -233.95247,-3.23668 c -0.0376,-2.05503 2.30826,-4.77868 11.20247,-13.00674 6.1875,-5.72407 12.11117,-11.07937 13.16372,-11.90066 4.58632,-3.57866 -0.83713,3.02163 -12.331,15.00674 -10.4628,10.90997 -11.99371,12.16936 -12.03519,9.90066 z M 136,443.72308 c 0,-0.87279 1.40208,-2.58526 3.11573,-3.80549 2.80228,-1.99539 3.0128,-2.02627 2.09262,-0.3069 -0.5627,1.05143 -1.96478,2.7639 -3.11573,3.80549 -1.7821,1.61278 -2.09262,1.65832 -2.09262,0.3069 z"
               style="fill:#000000;fill-opacity:1;stroke:#232627;stroke-opacity:1" />
          </g>
        </g>
      </g>
      <path
         d="m 150.56347,15.83756 c -1.70772,-3.74755 -6.99847,-3.49009 -10.30576,-2.23482 -0.18585,0.0548 -0.37628,0.12949 -0.56822,0.23156 -0.19348,0.0868 -0.3641,0.18585 -0.51491,0.29402 -32.39498,17.71859 -34.57953,59.21737 -15.22023,87.60429 1.89967,2.78629 6.13318,0.37171 4.54733,-2.65679 -12.13536,-23.16778 -7.23155,-51.05199 12.66397,-68.22673 3.31034,-2.85637 11.88553,-9.54407 9.39782,-15.01153 z"
         id="XMLID_728_-7"
         inkscape:connector-curvature="0"
         style="opacity:0.5;fill:#ffffff;stroke-width:1.52339411" />
    </g>
  </g>
</svg>
